<?xml version="1.0" encoding="UTF-8" standalone="no"?>
<!DOCTYPE svg PUBLIC "-//W3C//DTD SVG 1.1//EN"
 "http://www.w3.org/Graphics/SVG/1.1/DTD/svg11.dtd">
<!-- Generated by graphviz version 2.38.0 (20140413.2041)
 -->
<!-- Title: G Pages: 1 -->
<svg width="100pt" height="127pt"
 viewBox="0.00 0.00 100.00 127.00" xmlns="http://www.w3.org/2000/svg" xmlns:xlink="http://www.w3.org/1999/xlink">
<g id="graph0" class="graph" transform="scale(1 1) rotate(0) translate(4 123)">
<title>G</title>
<polygon fill="white" stroke="none" points="-4,4 -4,-123 96,-123 96,4 -4,4"/>
<!-- jkphl/elevator -->
<g id="node1" class="node"><title>jkphl/elevator</title>
<path fill="#eeeeee" stroke="black" stroke-width="2" d="M80,-119C80,-119 12,-119 12,-119 6,-119 0,-113 0,-107 0,-107 0,-95 0,-95 0,-89 6,-83 12,-83 12,-83 80,-83 80,-83 86,-83 92,-89 92,-95 92,-95 92,-107 92,-107 92,-113 86,-119 80,-119"/>
<text text-anchor="middle" x="46" y="-97.3" font-family="Times,serif" font-size="14.00" fill="#314b5f">jkphl/elevator</text>
</g>
<!-- php -->
<g id="node2" class="node"><title>php</title>
<path fill="#eeeeee" stroke="black" d="M61,-36C61,-36 31,-36 31,-36 25,-36 19,-30 19,-24 19,-24 19,-12 19,-12 19,-6 25,-0 31,-0 31,-0 61,-0 61,-0 67,-0 73,-6 73,-12 73,-12 73,-24 73,-24 73,-30 67,-36 61,-36"/>
<text text-anchor="middle" x="46" y="-14.3" font-family="Times,serif" font-size="14.00" fill="#314b5f">php</text>
</g>
<!-- jkphl/elevator&#45;&gt;php -->
<g id="edge1" class="edge"><title>jkphl/elevator&#45;&gt;php</title>
<path fill="none" stroke="#1a2833" d="M46,-82.822C46,-72.1903 46,-58.306 46,-46.2035"/>
<polygon fill="#1a2833" stroke="#1a2833" points="49.5001,-46.1532 46,-36.1533 42.5001,-46.1533 49.5001,-46.1532"/>
<text text-anchor="middle" x="58.5" y="-57" font-family="Times,serif" font-size="10.00" fill="#767676">&gt;=5.6</text>
</g>
</g>
</svg>
